<svg width="159" height="50" viewBox="0 0 159 50" fill="none" xmlns="http://www.w3.org/2000/svg">
<path d="M0.929688 11.2812C0.929688 11.2109 0.941406 11.1523 0.964844 11.1055C0.964844 11.0586 0.976562 11 1 10.9297C1.09375 10.8125 1.23438 10.6602 1.42188 10.4727C1.60938 10.2852 1.72656 10.1914 1.77344 10.1914H8.83984C8.83984 9.93359 8.80469 9.52344 8.73438 8.96094C8.66406 8.39844 8.59375 7.77734 8.52344 7.09766C8.47656 6.41797 8.46484 5.71484 8.48828 4.98828C8.51172 4.23828 8.60547 3.57031 8.76953 2.98438C8.95703 2.375 9.23828 1.88281 9.61328 1.50781C10.0117 1.10938 10.5625 0.910156 11.2656 0.910156C11.2656 3.27734 11.4297 5.17578 11.7578 6.60547C12.0859 8.03516 12.5195 9.13672 13.0586 9.91016C13.6211 10.6836 14.2539 11.1875 14.957 11.4219C15.6602 11.6562 16.375 11.7617 17.1016 11.7383C17.8516 11.6914 18.5781 11.5742 19.2812 11.3867C19.9844 11.1992 20.6055 11.0703 21.1445 11C21.707 10.9297 22.1523 10.9883 22.4805 11.1758C22.8086 11.3398 22.9727 11.75 22.9727 12.4062C22.9727 12.8984 22.8555 13.25 22.6211 13.4609C22.4102 13.6719 21.9883 13.8359 21.3555 13.9531C21.168 13.9766 20.8516 14.0234 20.4062 14.0938C19.9844 14.1406 19.5039 14.1875 18.9648 14.2344C18.4258 14.2812 17.8516 14.3398 17.2422 14.4102C16.6328 14.457 16.0586 14.5039 15.5195 14.5508C14.9805 14.5977 14.4883 14.6328 14.043 14.6562C13.5977 14.6562 13.2695 14.6562 13.0586 14.6562C13.0586 14.7734 13.0469 14.9727 13.0234 15.2539C13 15.5352 12.9883 15.7227 12.9883 15.8164C12.9883 16.8477 13.1523 17.8555 13.4805 18.8398C13.8086 19.8008 14.1602 20.7617 14.5352 21.7227C14.9336 22.6836 15.2969 23.6445 15.625 24.6055C15.9531 25.5664 16.1172 26.5625 16.1172 27.5938C16.1172 27.7812 16.0938 27.9805 16.0469 28.1914C16.0234 28.3789 15.9531 28.5547 15.8359 28.7188C15.7422 28.8594 15.5898 28.9648 15.3789 29.0352C15.1914 29.1289 14.9219 29.1172 14.5703 29C13.6797 28.7656 13.0117 28.2617 12.5664 27.4883C12.1445 26.7148 11.8281 25.8008 11.6172 24.7461C11.4062 23.668 11.2656 22.5312 11.1953 21.3359C11.125 20.1406 11.0078 19.0273 10.8438 17.9961C10.7031 16.9414 10.4688 16.0508 10.1406 15.3242C9.8125 14.5742 9.28516 14.1172 8.55859 13.9531L1.77344 12.4062C1.67969 12.4062 1.53906 12.3125 1.35156 12.125C1.16406 11.9141 1.04688 11.7617 1 11.668C0.976562 11.6211 0.964844 11.5625 0.964844 11.4922C0.941406 11.4453 0.929688 11.375 0.929688 11.2812ZM24.3086 14.6562C24.3086 14.5156 24.3086 14.2695 24.3086 13.918C24.332 13.543 24.3438 13.1562 24.3438 12.7578C24.3438 12.3594 24.3438 11.9961 24.3438 11.668C24.3672 11.3164 24.3789 11.0703 24.3789 10.9297C24.543 10.6484 24.7305 10.3789 24.9414 10.1211C25.1758 9.83984 25.4102 9.65234 25.6445 9.55859C25.9023 9.44141 26.1719 9.41797 26.4531 9.48828C26.7578 9.55859 27.0625 9.79297 27.3672 10.1914V10.4727V10.9297C27.3438 11.0469 27.2969 11.3281 27.2266 11.7734C27.1562 12.1953 27.0742 12.6641 26.9805 13.1797C26.8867 13.6953 26.793 14.1758 26.6992 14.6211C26.6289 15.043 26.5938 15.3125 26.5938 15.4297C26.5938 15.875 26.6406 16.4375 26.7344 17.1172C26.8281 17.7734 26.957 18.4648 27.1211 19.1914C27.3086 19.918 27.5312 20.6445 27.7891 21.3711C28.0703 22.0977 28.3984 22.7539 28.7734 23.3398C29.1484 23.9023 29.5586 24.3711 30.0039 24.7461C30.4727 25.1211 31.0117 25.3086 31.6211 25.3086C32.3711 25.3086 33.0273 25.1094 33.5898 24.7109C34.1758 24.3125 34.6797 23.7969 35.1016 23.1641C35.5234 22.5312 35.8633 21.8164 36.1211 21.0195C36.4023 20.2227 36.625 19.4258 36.7891 18.6289C36.9531 17.8086 37.0703 17.0234 37.1406 16.2734C37.2109 15.5234 37.2461 14.8672 37.2461 14.3047C37.2461 13.7422 37.1992 13.2148 37.1055 12.7227C37.0352 12.207 36.9414 11.7031 36.8242 11.2109C36.707 10.7188 36.6016 10.2383 36.5078 9.76953C36.4375 9.27734 36.4023 8.78516 36.4023 8.29297C36.4023 7.84766 36.5547 7.53125 36.8594 7.34375C37.1875 7.15625 37.5508 7.0625 37.9492 7.0625C38.4414 7.0625 38.8398 7.21484 39.1445 7.51953C39.4492 7.80078 39.6836 8.16406 39.8477 8.60938C40.0352 9.05469 40.1523 9.57031 40.1992 10.1562C40.2695 10.7188 40.3047 11.2812 40.3047 11.8438C40.3047 12.4062 40.293 12.9453 40.2695 13.4609C40.2461 13.9531 40.2344 14.3516 40.2344 14.6562C40.2344 15.4531 40.1758 16.3555 40.0586 17.3633C39.9414 18.3711 39.7305 19.4141 39.4258 20.4922C39.1445 21.5469 38.7812 22.5898 38.3359 23.6211C37.9141 24.6523 37.3867 25.5781 36.7539 26.3984C36.1445 27.1953 35.4297 27.8398 34.6094 28.332C33.8125 28.8242 32.9102 29.0703 31.9023 29.0703C30.8477 29.0703 29.9219 28.8242 29.125 28.332C28.3281 27.8164 27.6484 27.1484 27.0859 26.3281C26.5469 25.4844 26.0898 24.5352 25.7148 23.4805C25.3398 22.4258 25.0469 21.3711 24.8359 20.3164C24.6484 19.2617 24.5078 18.2422 24.4141 17.2578C24.3438 16.25 24.3086 15.3828 24.3086 14.6562ZM51.4492 47.7031C52.7617 47.7031 53.9336 47.457 54.9648 46.9648C55.9961 46.4961 56.8633 45.8398 57.5664 44.9961C58.293 44.1758 58.8438 43.2266 59.2188 42.1484C59.6172 41.0938 59.8164 39.9922 59.8164 38.8438C59.8164 38.2578 59.7812 37.4844 59.7109 36.5234C59.6641 35.5625 59.582 34.5195 59.4648 33.3945C59.3477 32.2695 59.1719 31.1211 58.9375 29.9492C58.7266 28.7773 58.457 27.6758 58.1289 26.6445C57.8008 25.5898 57.3906 24.6758 56.8984 23.9023C56.4297 23.1055 55.8789 22.543 55.2461 22.2148C54.6367 22.6836 54.0391 23.1172 53.4531 23.5156C52.8672 23.8906 52.2578 24.207 51.625 24.4648C50.9922 24.7227 50.3359 24.9336 49.6562 25.0977C48.9766 25.2383 48.25 25.3086 47.4766 25.3086C46.4688 25.3086 45.6016 25.2148 44.875 25.0273C44.1719 24.8398 43.5742 24.5234 43.082 24.0781C42.6133 23.6328 42.2617 23.0469 42.0273 22.3203C41.793 21.5938 41.6758 20.6797 41.6758 19.5781C41.6758 18.8047 41.8633 18.0547 42.2383 17.3281C42.6133 16.5781 43.1055 15.8867 43.7148 15.2539C44.3477 14.5977 45.0508 14 45.8242 13.4609C46.6211 12.9219 47.4297 12.4531 48.25 12.0547C49.0938 11.6562 49.9141 11.3516 50.7109 11.1406C51.5312 10.9297 52.2578 10.8242 52.8906 10.8242C53.5 10.8242 54.0039 10.8477 54.4023 10.8945C54.8008 10.918 55.1406 11.0117 55.4219 11.1758C55.7031 11.3164 55.9375 11.5508 56.125 11.8789C56.3359 12.1836 56.5352 12.6055 56.7227 13.1445C57.2617 14.9727 57.8828 16.9414 58.5859 19.0508C59.2891 21.1602 59.957 23.3281 60.5898 25.5547C61.2227 27.7812 61.75 30.0195 62.1719 32.2695C62.6172 34.543 62.8398 36.7344 62.8398 38.8438C62.8398 40.7188 62.5703 42.3008 62.0312 43.5898C61.5156 44.9023 60.8242 45.9688 59.957 46.7891C59.1133 47.6328 58.1406 48.2773 57.0391 48.7227C55.9609 49.168 54.8711 49.4492 53.7695 49.5664C52.668 49.707 51.6016 49.7422 50.5703 49.6719C49.5391 49.6016 48.6484 49.4609 47.8984 49.25C47.1484 49.0625 46.5742 48.8398 46.1758 48.582C45.8008 48.3242 45.707 48.1016 45.8945 47.9141C46.1055 47.75 46.6445 47.6328 47.5117 47.5625C48.3789 47.4922 49.6914 47.5391 51.4492 47.7031ZM51.9414 13.7773C50.207 14.1523 48.8008 14.6797 47.7227 15.3594C46.668 16.0156 45.8711 16.7305 45.332 17.5039C44.8164 18.2539 44.5352 19.0156 44.4883 19.7891C44.4414 20.5391 44.582 21.1836 44.9102 21.7227C45.2383 22.2617 45.707 22.6719 46.3164 22.9531C46.9492 23.2109 47.6641 23.2227 48.4609 22.9883C49.2578 22.7305 50.1016 22.1914 50.9922 21.3711C51.9062 20.5508 52.8203 19.332 53.7344 17.7148C53.7344 17.3164 53.7344 16.8828 53.7344 16.4141C53.7578 15.9453 53.7227 15.5234 53.6289 15.1484C53.5352 14.75 53.3594 14.4219 53.1016 14.1641C52.8438 13.9062 52.457 13.7773 51.9414 13.7773ZM62.7344 19.2266C62.7344 17.9609 62.8867 16.6953 63.1914 15.4297C63.4961 14.1641 63.9766 13.0273 64.6328 12.0195C65.3125 11.0117 66.1797 10.1914 67.2344 9.55859C68.3125 8.92578 69.6133 8.60938 71.1367 8.60938C72.0039 8.60938 72.7656 8.77344 73.4219 9.10156C74.0781 9.40625 74.6289 9.81641 75.0742 10.332C75.5195 10.8477 75.8477 11.457 76.0586 12.1602C76.293 12.8398 76.4102 13.5547 76.4102 14.3047C76.4102 15.5 76.1289 16.6602 75.5664 17.7852C75.0273 18.9102 74.2891 19.9062 73.3516 20.7734C72.4375 21.6172 71.3828 22.2617 70.1875 22.707C68.9922 23.1289 67.7734 23.2227 66.5312 22.9883C66.5547 23.668 66.7773 24.2188 67.1992 24.6406C67.6445 25.0391 68.1719 25.3438 68.7812 25.5547C69.3906 25.7656 70.0234 25.9062 70.6797 25.9766C71.3359 26.0234 71.9219 26.0469 72.4375 26.0469C72.9766 26.0469 73.4805 26 73.9492 25.9062C74.418 25.8125 74.8867 25.707 75.3555 25.5898C75.8242 25.4727 76.293 25.3672 76.7617 25.2734C77.2539 25.1797 77.7695 25.1328 78.3086 25.1328C78.5195 25.1328 78.7305 25.1445 78.9414 25.168C79.1523 25.1914 79.3516 25.25 79.5391 25.3438C79.7266 25.4141 79.8789 25.543 79.9961 25.7305C80.1133 25.8945 80.1719 26.1055 80.1719 26.3633C80.1719 26.8086 80.0078 27.1836 79.6797 27.4883C79.3516 27.7695 78.9297 28.0156 78.4141 28.2266C77.9219 28.4375 77.3711 28.6016 76.7617 28.7188C76.1523 28.8125 75.5547 28.8945 74.9688 28.9648C74.4062 29.0117 73.8789 29.0352 73.3867 29.0352C72.918 29.0586 72.5664 29.0703 72.332 29.0703C70.832 29.0703 69.4844 28.8359 68.2891 28.3672C67.0938 27.875 66.0859 27.207 65.2656 26.3633C64.4453 25.4961 63.8125 24.4648 63.3672 23.2695C62.9453 22.0508 62.7344 20.7031 62.7344 19.2266ZM66.4609 16.9414C66.4609 17.7617 66.5664 18.3594 66.7773 18.7344C67.0117 19.1094 67.5625 19.2969 68.4297 19.2969C69.0391 19.2969 69.6367 19.1914 70.2227 18.9805C70.8086 18.7461 71.3359 18.4297 71.8047 18.0312C72.2969 17.6328 72.6836 17.1641 72.9648 16.625C73.2461 16.0859 73.3867 15.5 73.3867 14.8672C73.3867 14.5156 73.3516 14.1523 73.2812 13.7773C73.2344 13.4023 73.1172 13.0625 72.9297 12.7578C72.7422 12.4297 72.4961 12.1719 72.1914 11.9844C71.9102 11.7734 71.5352 11.668 71.0664 11.668C70.3633 11.668 69.7188 11.832 69.1328 12.1602C68.5703 12.4648 68.0898 12.875 67.6914 13.3906C67.293 13.8828 66.9883 14.4453 66.7773 15.0781C66.5664 15.6875 66.4609 16.3086 66.4609 16.9414ZM81.5781 11.2812C81.5781 11.2109 81.5898 11.1523 81.6133 11.1055C81.6133 11.0586 81.625 11 81.6484 10.9297C81.7422 10.8125 81.8828 10.6602 82.0703 10.4727C82.2578 10.2852 82.375 10.1914 82.4219 10.1914H89.4883C89.4883 9.93359 89.4531 9.52344 89.3828 8.96094C89.3125 8.39844 89.2422 7.77734 89.1719 7.09766C89.125 6.41797 89.1133 5.71484 89.1367 4.98828C89.1602 4.23828 89.2539 3.57031 89.418 2.98438C89.6055 2.375 89.8867 1.88281 90.2617 1.50781C90.6602 1.10938 91.2109 0.910156 91.9141 0.910156C91.9141 3.27734 92.0781 5.17578 92.4062 6.60547C92.7344 8.03516 93.168 9.13672 93.707 9.91016C94.2695 10.6836 94.9023 11.1875 95.6055 11.4219C96.3086 11.6562 97.0234 11.7617 97.75 11.7383C98.5 11.6914 99.2266 11.5742 99.9297 11.3867C100.633 11.1992 101.254 11.0703 101.793 11C102.355 10.9297 102.801 10.9883 103.129 11.1758C103.457 11.3398 103.621 11.75 103.621 12.4062C103.621 12.8984 103.504 13.25 103.27 13.4609C103.059 13.6719 102.637 13.8359 102.004 13.9531C101.816 13.9766 101.5 14.0234 101.055 14.0938C100.633 14.1406 100.152 14.1875 99.6133 14.2344C99.0742 14.2812 98.5 14.3398 97.8906 14.4102C97.2812 14.457 96.707 14.5039 96.168 14.5508C95.6289 14.5977 95.1367 14.6328 94.6914 14.6562C94.2461 14.6562 93.918 14.6562 93.707 14.6562C93.707 14.7734 93.6953 14.9727 93.6719 15.2539C93.6484 15.5352 93.6367 15.7227 93.6367 15.8164C93.6367 16.8477 93.8008 17.8555 94.1289 18.8398C94.457 19.8008 94.8086 20.7617 95.1836 21.7227C95.582 22.6836 95.9453 23.6445 96.2734 24.6055C96.6016 25.5664 96.7656 26.5625 96.7656 27.5938C96.7656 27.7812 96.7422 27.9805 96.6953 28.1914C96.6719 28.3789 96.6016 28.5547 96.4844 28.7188C96.3906 28.8594 96.2383 28.9648 96.0273 29.0352C95.8398 29.1289 95.5703 29.1172 95.2188 29C94.3281 28.7656 93.6602 28.2617 93.2148 27.4883C92.793 26.7148 92.4766 25.8008 92.2656 24.7461C92.0547 23.668 91.9141 22.5312 91.8438 21.3359C91.7734 20.1406 91.6562 19.0273 91.4922 17.9961C91.3516 16.9414 91.1172 16.0508 90.7891 15.3242C90.4609 14.5742 89.9336 14.1172 89.207 13.9531L82.4219 12.4062C82.3281 12.4062 82.1875 12.3125 82 12.125C81.8125 11.9141 81.6953 11.7617 81.6484 11.668C81.625 11.6211 81.6133 11.5625 81.6133 11.4922C81.5898 11.4453 81.5781 11.375 81.5781 11.2812ZM105.977 6.14844C105.977 5.89062 106 5.57422 106.047 5.19922C106.117 4.80078 106.223 4.42578 106.363 4.07422C106.527 3.72266 106.727 3.42969 106.961 3.19531C107.195 2.9375 107.5 2.80859 107.875 2.80859C107.898 2.80859 107.957 2.82031 108.051 2.84375C108.145 2.86719 108.203 2.87891 108.227 2.87891C108.625 4.33203 108.859 5.77344 108.93 7.20312C109 8.63281 108.977 10.0273 108.859 11.3867C108.742 12.7227 108.566 14.0234 108.332 15.2891C108.098 16.5312 107.898 17.6797 107.734 18.7344C107.594 19.7891 107.5 20.7383 107.453 21.582C107.43 22.4258 107.559 23.1406 107.84 23.7266C107.793 23.3516 107.758 22.9062 107.734 22.3906C107.734 21.8516 107.781 21.3008 107.875 20.7383C107.992 20.1758 108.168 19.6133 108.402 19.0508C108.66 18.4883 109.023 17.9844 109.492 17.5391C109.961 17.0938 110.559 16.7422 111.285 16.4844C112.035 16.2266 112.961 16.0977 114.062 16.0977C115.211 16.0977 116.195 16.2969 117.016 16.6953C117.859 17.0938 118.551 17.6445 119.09 18.3477C119.629 19.0273 120.027 19.8359 120.285 20.7734C120.566 21.6875 120.707 22.6719 120.707 23.7266C120.707 24.2188 120.695 24.7812 120.672 25.4141C120.672 26.0234 120.59 26.5977 120.426 27.1367C120.285 27.6523 120.016 28.0977 119.617 28.4727C119.242 28.8242 118.68 29 117.93 29C117.93 28.625 117.953 28.1211 118 27.4883C118.047 26.832 118.07 26.1406 118.07 25.4141C118.094 24.6875 118.07 23.9492 118 23.1992C117.953 22.4492 117.801 21.7812 117.543 21.1953C117.285 20.5859 116.922 20.0938 116.453 19.7188C116.008 19.3203 115.387 19.1211 114.59 19.1211C114.309 19.1211 113.957 19.1445 113.535 19.1914C113.137 19.2148 112.727 19.3203 112.305 19.5078C111.883 19.6953 111.473 19.9883 111.074 20.3867C110.676 20.7617 110.359 21.2891 110.125 21.9688C109.891 22.625 109.75 23.4688 109.703 24.5C109.68 25.5078 109.809 26.75 110.09 28.2266C109.926 28.6484 109.715 28.8945 109.457 28.9648C109.223 29.0352 108.918 29.0703 108.543 29.0703C107.793 29.0703 107.172 28.8125 106.68 28.2969C106.211 27.7578 105.848 27.043 105.59 26.1523C105.332 25.2617 105.156 24.2305 105.062 23.0586C104.992 21.8867 104.969 20.668 104.992 19.4023C105.016 18.1133 105.074 16.8125 105.168 15.5C105.285 14.1641 105.391 12.9102 105.484 11.7383C105.602 10.543 105.707 9.46484 105.801 8.50391C105.918 7.51953 105.977 6.73438 105.977 6.14844ZM122.113 19.2266C122.113 17.9609 122.266 16.6953 122.57 15.4297C122.875 14.1641 123.355 13.0273 124.012 12.0195C124.691 11.0117 125.559 10.1914 126.613 9.55859C127.691 8.92578 128.992 8.60938 130.516 8.60938C131.383 8.60938 132.145 8.77344 132.801 9.10156C133.457 9.40625 134.008 9.81641 134.453 10.332C134.898 10.8477 135.227 11.457 135.438 12.1602C135.672 12.8398 135.789 13.5547 135.789 14.3047C135.789 15.5 135.508 16.6602 134.945 17.7852C134.406 18.9102 133.668 19.9062 132.73 20.7734C131.816 21.6172 130.762 22.2617 129.566 22.707C128.371 23.1289 127.152 23.2227 125.91 22.9883C125.934 23.668 126.156 24.2188 126.578 24.6406C127.023 25.0391 127.551 25.3438 128.16 25.5547C128.77 25.7656 129.402 25.9062 130.059 25.9766C130.715 26.0234 131.301 26.0469 131.816 26.0469C132.355 26.0469 132.859 26 133.328 25.9062C133.797 25.8125 134.266 25.707 134.734 25.5898C135.203 25.4727 135.672 25.3672 136.141 25.2734C136.633 25.1797 137.148 25.1328 137.688 25.1328C137.898 25.1328 138.109 25.1445 138.32 25.168C138.531 25.1914 138.73 25.25 138.918 25.3438C139.105 25.4141 139.258 25.543 139.375 25.7305C139.492 25.8945 139.551 26.1055 139.551 26.3633C139.551 26.8086 139.387 27.1836 139.059 27.4883C138.73 27.7695 138.309 28.0156 137.793 28.2266C137.301 28.4375 136.75 28.6016 136.141 28.7188C135.531 28.8125 134.934 28.8945 134.348 28.9648C133.785 29.0117 133.258 29.0352 132.766 29.0352C132.297 29.0586 131.945 29.0703 131.711 29.0703C130.211 29.0703 128.863 28.8359 127.668 28.3672C126.473 27.875 125.465 27.207 124.645 26.3633C123.824 25.4961 123.191 24.4648 122.746 23.2695C122.324 22.0508 122.113 20.7031 122.113 19.2266ZM125.84 16.9414C125.84 17.7617 125.945 18.3594 126.156 18.7344C126.391 19.1094 126.941 19.2969 127.809 19.2969C128.418 19.2969 129.016 19.1914 129.602 18.9805C130.188 18.7461 130.715 18.4297 131.184 18.0312C131.676 17.6328 132.062 17.1641 132.344 16.625C132.625 16.0859 132.766 15.5 132.766 14.8672C132.766 14.5156 132.73 14.1523 132.66 13.7773C132.613 13.4023 132.496 13.0625 132.309 12.7578C132.121 12.4297 131.875 12.1719 131.57 11.9844C131.289 11.7734 130.914 11.668 130.445 11.668C129.742 11.668 129.098 11.832 128.512 12.1602C127.949 12.4648 127.469 12.875 127.07 13.3906C126.672 13.8828 126.367 14.4453 126.156 15.0781C125.945 15.6875 125.84 16.3086 125.84 16.9414ZM141.73 14.2344C141.73 14.0234 141.742 13.8125 141.766 13.6016C141.789 13.3672 141.836 13.168 141.906 13.0039C141.977 12.8164 142.082 12.6641 142.223 12.5469C142.387 12.4297 142.609 12.3711 142.891 12.3711C143.125 12.3711 143.383 12.5586 143.664 12.9336C143.969 13.2852 144.273 13.7422 144.578 14.3047C144.883 14.8438 145.176 15.4414 145.457 16.0977C145.762 16.7539 146.02 17.3633 146.23 17.9258C146.465 18.4648 146.652 18.9336 146.793 19.332C146.934 19.7305 147.016 19.9414 147.039 19.9648C147.344 19.1445 147.684 18.2539 148.059 17.293C148.434 16.332 148.891 15.4414 149.43 14.6211C149.992 13.7773 150.648 13.0742 151.398 12.5117C152.172 11.9492 153.109 11.668 154.211 11.668C154.773 11.668 155.301 11.7617 155.793 11.9492C156.309 12.1133 156.754 12.3711 157.129 12.7227C157.527 13.0508 157.844 13.4492 158.078 13.918C158.312 14.3867 158.43 14.9258 158.43 15.5352C158.43 16.0508 158.219 16.4141 157.797 16.625C157.398 16.8359 156.941 16.9414 156.426 16.9414H156.074L154.562 15.4297C154.516 15.4297 154.48 15.418 154.457 15.3945C154.41 15.3945 154.363 15.3945 154.316 15.3945C154.293 15.3711 154.258 15.3594 154.211 15.3594C153.391 15.3594 152.746 15.5938 152.277 16.0625C151.832 16.5078 151.492 17.0703 151.258 17.75C151.023 18.4062 150.871 19.1094 150.801 19.8594C150.754 20.5859 150.73 21.2539 150.73 21.8633C150.73 22.332 150.777 22.8125 150.871 23.3047C150.965 23.7734 151.07 24.2422 151.188 24.7109C151.305 25.1562 151.41 25.625 151.504 26.1172C151.598 26.5859 151.645 27.0781 151.645 27.5938C151.645 28.5781 151.117 29.0703 150.062 29.0703C149.477 29.0703 148.867 28.7656 148.234 28.1562C147.602 27.5234 146.969 26.7266 146.336 25.7656C145.727 24.8047 145.141 23.75 144.578 22.6016C144.016 21.4297 143.523 20.293 143.102 19.1914C142.68 18.0898 142.34 17.0938 142.082 16.2031C141.848 15.3125 141.73 14.6562 141.73 14.2344Z" fill="white"/>
</svg>
